/* XPM */
static char *result[] = {
/* columns rows colors chars-per-pixel */
"64 64 159 2 ",
"   c #030302",
".  c #0B0603",
"X  c #040807",
"o  c #0E0805",
"O  c #000708",
"+  c #020C0D",
"@  c #0B0B0A",
"#  c #130605",
"$  c #1B0505",
"%  c #140B06",
"&  c #1A0D07",
"*  c #100F0E",
"=  c #1B0F08",
"-  c #1E1109",
";  c #010F11",
":  c #001315",
">  c #01191C",
",  c #111212",
"<  c #1A1A1A",
"1  c #280807",
"2  c #340E0C",
"3  c #3F0A0A",
"4  c #22130A",
"5  c #28170C",
"6  c #2D1A0E",
"7  c #321D0F",
"8  c #361F11",
"9  c #382011",
"0  c #001C20",
"q  c #012225",
"w  c #002529",
"e  c #002A2F",
"r  c #012D33",
"t  c #01373D",
"y  c #232322",
"u  c #2E2D2D",
"i  c #323333",
"p  c #393838",
"a  c #410A0A",
"s  c #4E0B0B",
"d  c #580D0D",
"f  c #48130F",
"g  c #571813",
"h  c #6D1714",
"j  c #731F19",
"k  c #432614",
"l  c #4B2B17",
"z  c #4C2B17",
"x  c #502D18",
"c  c #56311A",
"v  c #5B341B",
"b  c #64391E",
"n  c #65391E",
"m  c #6B3D20",
"M  c #724122",
"N  c #794524",
"B  c #003B42",
"V  c #00464C",
"C  c #004B55",
"Z  c #004E58",
"A  c #00535D",
"S  c #005661",
"D  c #005B66",
"F  c #005E6A",
"G  c #00646E",
"H  c #006771",
"J  c #006B76",
"K  c #006E7B",
"L  c #424445",
"P  c #4C4C4C",
"I  c #5C5D5D",
"U  c #5F6364",
"Y  c #636363",
"T  c #6A6969",
"R  c #727272",
"E  c #74787A",
"W  c #7E7D7D",
"Q  c #8C1414",
"!  c #961616",
"~  c #A91919",
"^  c #B51D1C",
"/  c #83241C",
"(  c #992A21",
")  c #A82E24",
"_  c #BB3328",
"`  c #C31E1D",
"'  c #D72A25",
"]  c #C6362B",
"[  c #D0382D",
"{  c #DB3C2F",
"}  c #E3352C",
"|  c #E43B2F",
" . c #EA3E31",
".. c #824A27",
"X. c #874D29",
"o. c #8B4F2A",
"O. c #93532D",
"+. c #99572E",
"@. c #9D592F",
"#. c #9F5A30",
"$. c #A45D31",
"%. c #AD6234",
"&. c #B46636",
"*. c #B76837",
"=. c #BB6A38",
"-. c #F34234",
";. c #C26E3A",
":. c #C6713C",
">. c #CC743D",
",. c #D2783F",
"<. c #DB7D42",
"1. c #E07F44",
"2. c #E48144",
"3. c #EB8547",
"4. c #EF8848",
"5. c #F38A49",
"6. c #FB8F4C",
"7. c #FF914D",
"8. c #007584",
"9. c #007986",
"0. c #00828E",
"q. c #008694",
"w. c #008C9A",
"e. c #0092A5",
"r. c #009AAD",
"t. c #009DB2",
"y. c #00A5B8",
"u. c #00A6BA",
"i. c #7D8283",
"p. c #00AEC4",
"a. c #00B1C7",
"s. c #00B5CC",
"d. c #00BBD3",
"f. c #00BFD8",
"g. c #00C1D9",
"h. c #818181",
"j. c #8E8E8E",
"k. c #908F8F",
"l. c #96999B",
"z. c #A4A8A9",
"x. c gray67",
"c. c #B0AFAF",
"v. c #B2B6B8",
"b. c #B5BCBF",
"n. c #B9B9B9",
"m. c #C3C3C3",
"M. c #CACACA",
"N. c #C5CDD1",
"B. c #CED7DB",
"V. c #CFD8DC",
"C. c #D4D4D4",
"Z. c #D4DBDE",
"A. c #D6DCE0",
"S. c #DFDFE0",
"D. c #DAE0E3",
"F. c #E7E7E7",
"G. c #E6EAEB",
"H. c #EDEEEF",
"J. c #F4F4F4",
/* pixels */
"7.7.7.7.7.7.7.7.7.7.7.7.7.7.7.7.7.7.7.7.7.7.7.7.7.7.7.7.7.7.7.7.7.7.7.7.7.7.7.7.7.7.7.7.7.7.7.7.7.7.7.7.7.7.7.7.7.7.7.7.7.7.7.7.",
"7.7.7.7.7.7.7.7.7.7.7.7.7.7.7.7.7.7.7.7.7.7.7.7.7.7.7.7.7.7.7.7.7.7.7.7.7.7.7.7.7.7.7.7.7.7.7.7.7.7.7.7.7.7.7.7.7.7.7.7.7.7.7.7.",
"7.7.7.7.7.7.7.7.7.7.7.7.7.7.7.7.7.7.7.7.7.7.7.7.7.7.7.7.7.7.7.7.7.7.7.7.7.7.7.7.7.7.7.7.7.7.7.7.7.7.7.7.7.7.7.7.7.7.7.7.7.7.7.7.",
"7.7.7.7.7.7.7.7.7.7.7.7.7.7.7.7.7.7.7.7.7.7.7.7.7.7.7.7.7.7.7.7.7.7.7.7.7.7.7.7.7.7.7.7.7.7.7.7.7.7.7.7.7.7.7.7.7.7.7.7.7.7.7.7.",
"7.7.7.7.7.7.7.7.7.7.7.7.7.7.7.7.7.7.7.7.7.7.7.7.7.7.7.7.7.7.7.7.7.7.7.7.7.7.7.7.7.7.7.7.7.7.7.7.7.7.7.7.7.7.7.7.7.7.7.7.7.7.7.7.",
"7.7.7.7.7.7.7.7.7.7.7.7.7.7.7.7.7.7.7.7.7.7.7.7.7.7.7.7.7.7.7.7.7.7.7.7.7.7.7.7.7.7.7.7.7.7.7.7.7.7.7.7.7.7.7.7.7.7.7.7.7.7.7.7.",
"7.7.7.7.7.7.7.7.7.7.7.7.7.7.7.7.7.7.7.7.7.7.7.7.7.7.7.7.7.7.7.7.7.7.7.7.7.7.7.7.7.7.7.7.7.7.7.7.7.7.7.7.7.7.7.7.7.7.7.7.7.7.7.7.",
"7.7.7.7.7.7.7.7.7.7.7.7.7.7.7.7.7.7.7.7.7.7.7.7.7.7.7.7.7.7.7.7.7.7.7.7.7.7.7.7.7.7.7.7.7.7.7.7.7.7.7.7.7.7.7.7.7.7.7.7.7.7.7.7.",
"7.7.7.7.7.7.7.7.7.7.7.7.7.7.7.7.7.7.7.7.7.7.7.7.7.7.7.7.7.7.7.7.7.7.7.7.7.7.7.7.7.7.7.7.7.7.7.7.7.7.7.7.7.7.7.7.7.7.7.7.7.7.7.7.",
"7.7.7.7.7.7.7.7.7.7.7.7.7.7.7.7.7.7.7.7.7.7.7.7.7.7.7.7.7.7.7.7.7.7.7.7.7.7.7.7.7.7.7.7.7.7.7.7.7.7.7.7.7.7.7.7.7.7.7.7.7.7.7.7.",
"7.7.7.7.7.7.7.7.7.7.7.7.7.7.7.7.7.7.7.7.7.7.7.7.7.7.7.7.7.7.7.7.7.7.7.7.7.7.7.7.7.7.7.7.7.7.7.7.7.7.7.7.7.7.7.7.7.7.7.7.7.7.7.7.",
"7.7.7.7.7.7.7.7.7.7.7.7.7.7.7.7.7.7.7.7.7.7.7.7.7.7.7.7.7.7.7.7.7.7.7.7.7.7.7.7.7.7.7.7.7.7.7.7.7.7.7.7.7.7.7.7.7.7.7.7.7.7.7.7.",
"7.7.7.7.7.7.7.7.7.7.7.7.7.7.7.7.7.7.7.7.7.7.7.7.7.7.7.7.7.7.7.7.7.7.7.7.7.7.7.7.7.7.7.7.7.7.7.7.7.7.7.7.7.7.7.7.7.7.7.7.7.7.7.7.",
"7.7.7.7.7.7.7.7.7.7.7.7.7.7.7.7.7.7.7.7.7.7.7.7.7.7.7.7.7.6.7.7.7.7.7.7.7.7.7.7.7.7.7.7.7.7.7.7.7.7.7.7.7.7.7.7.7.7.7.7.7.7.7.7.",
"7.7.7.7.7.7.7.7.7.7.7.7.7.7.7.7.7.7.7.7.7.7.7.7.7.6.6.>.O.x 4   . 4 z X.:.6.7.7.7.7.7.7.7.7.7.7.7.7.7.7.7.7.7.7.7.7.7.7.7.7.7.7.",
"7.7.7.7.7.7.7.7.7.7.7.7.7.7.7.7.7.7.7.7.7.7.7.7.6.;.k @ p T l.P t 9.A q O 8 =.6.7.7.7.7.7.7.7.7.7.7.7.7.7.7.7.7.7.7.7.7.7.7.7.7.",
"7.7.7.7.7.7.7.7.7.7.7.7.7.7.7.7.7.7.7.7.7.7.7.5.m % I C.J.J.J.T C f.d.s.q.t X b 3.7.7.7.7.7.7.7.7.7.7.7.7.7.7.7.7.7.7.7.7.7.7.7.",
"7.7.7.7.7.7.7.7.7.7.7.7.7.7.7.7.7.7.7.7.7.7.3.9 y m.J.J.J.J.J.Y C d.d.d.d.y.K > 6 2.7.7.7.7.7.7.7.7.7.7.7.7.7.7.7.7.7.7.7.7.7.7.",
"7.7.7.7.7.7.7.7.7.7.7.7.7.7.7.7.7.7.7.7.7.3.6 O v.J.J.J.J.J.J.T V f.d.d.d.d.u.H   5 3.7.7.7.7.7.7.7.7.7.7.7.7.7.7.7.7.7.7.7.7.7.",
"7.7.7.7.7.7.7.7.7.7.7.7.7.7.7.7.7.7.7.7.7.v w S , m.J.J.J.J.J.T C d.d.d.d.d.t.: I i z 7.7.7.7.7.7.7.7.7.7.7.7.7.7.7.7.7.7.7.7.7.",
"7.7.7.7.7.7.7.7.7.7.7.7.7.7.7.7.7.7.7.7.$.+ t.d.S , m.J.J.J.J.Y V d.d.d.d.e.: P Z.b., +.7.7.7.7.7.7.7.7.7.7.7.7.7.7.7.7.7.7.7.7.",
"7.7.7.7.7.7.7.7.7.7.7.7.7.7.7.7.7.7.7.6.6 F d.d.d.A , m.J.J.J.Y C f.u.K e . $ y H.V.E 4 5.7.7.7.7.7.7.7.7.7.7.7.7.7.7.7.7.7.7.7.",
"7.7.7.7.7.7.7.7.7.7.7.7.7.7.7.7.7.7.7.%.+ a.d.d.d.f.S , m.J.J.Y r V O 1 j ^ 3 I J.D.N., #.7.7.7.7.7.7.7.7.7.7.7.7.7.7.7.7.7.7.7.",
"7.7.7.7.7.7.7.7.7.7.7.7.7.7.7.7.7.7.6.v C d.d.d.d.d.d.S , x.T @ $ g ] -.| ~ X M.J.G.V.U l 7.7.7.7.7.7.7.7.7.7.7.7.7.7.7.7.7.7.7.",
"7.7.7.7.7.7.7.7.7.7.7.7.7.7.7.7.7.7.7.5 8.d.d.d.d.d.y.F X . f _  .-.-.-.' d L J.J.J.B.l.- 5.7.7.7.7.7.7.7.7.7.7.7.7.7.7.7.7.7.7.",
"7.7.7.7.7.7.7.7.7.7.7.7.7.7.7.7.7.7.5.. r.d.d.s.K r   2 ( {  .-.-.-.-. .^   n.J.J.J.V.v.X 2.7.7.7.7.7.7.7.7.7.7.7.7.7.7.7.7.7.7.",
"7.7.7.7.7.7.7.7.7.7.7.7.7.7.7.7.7.7.2.  G K D + $ / ] -.-.-.-.-.-.-.-.' h , j.j.k.k.i.R   ,.7.7.7.7.7.7.7.7.7.7.7.7.7.7.7.7.7.7.",
"7.7.7.7.7.7.7.7.7.7.7.7.7.7.7.7.7.6.<.  u u y . / { -.-.-.-.-.-.-.-.-.' s O q q w w > >   ,.7.7.7.7.7.7.7.7.7.7.7.7.7.7.7.7.7.7.",
"7.7.7.7.7.7.7.7.7.7.7.7.7.7.7.7.7.7.3.  C.J.F.W i   g ) | -.-.-.-.-.-.} ! + p.f.g.g.w.9.O 2.7.7.7.7.7.7.7.7.7.7.7.7.7.7.7.7.7.7.",
"7.7.7.7.7.7.7.7.7.7.7.7.7.7.7.7.7.7.7.& c.J.J.J.J.m.Y < o h _  .-.-.-.-.` 1 S d.d.d.q.G o 5.7.7.7.7.7.7.7.7.7.7.7.7.7.7.7.7.7.7.",
"7.7.7.7.7.7.7.7.7.7.7.7.7.7.7.7.7.7.7.k h.J.J.J.J.J.J.m.@ q ; $ / [  .-.} Q ; p.d.p.0.Z 8 7.7.7.7.7.7.7.7.7.7.7.7.7.7.7.7.7.7.7.",
"7.7.7.7.7.7.7.7.7.7.7.7.7.7.7.7.7.7.6...i J.J.J.J.J.M.< Z d.p.B @ # 2 ( | ` $ 8.d.r.0.0 M 7.7.7.7.7.7.7.7.7.7.7.7.7.7.7.7.7.7.7.",
"7.7.7.7.7.7.7.7.7.7.7.7.7.7.7.7.7.7.7.2.o x.J.J.J.m.< Z d.d.d.C I C.h.y # a a 0 d.q.G . 1.7.7.7.7.7.7.7.7.7.7.7.7.7.7.7.7.7.7.7.",
"7.7.7.7.7.7.7.7.7.7.7.7.7.7.7.7.7.7.7.7.m p J.J.M.< A s.d.d.d.Z Y J.J.H.n.I   V y.0.q v 7.7.7.7.7.7.7.7.7.7.7.7.7.7.7.7.7.7.7.7.",
"7.7.7.7.7.7.7.7.7.7.7.7.7.7.7.7.7.7.7.7.3.- R M.< A d.d.d.d.d.Z Y J.J.J.J.H.R ; J V % 2.7.7.7.7.7.7.7.7.7.7.7.7.7.7.7.7.7.7.7.7.",
"7.7.7.7.7.7.7.7.7.7.7.7.7.7.7.7.7.7.7.7.6.=.o , Z s.d.d.d.d.d.Z I J.J.J.J.J.J.Y +   &.7.7.7.7.7.7.7.7.7.7.7.7.7.7.7.7.7.7.7.7.7.",
"7.7.7.7.7.7.7.7.7.7.7.7.7.7.7.7.7.7.7.7.7.7.$.X J d.d.d.d.d.d.Z Y J.J.J.J.J.A.i.X O.6.7.7.7.7.7.7.7.7.7.7.7.7.7.7.7.7.7.7.7.7.7.",
"7.7.7.7.7.7.7.7.7.7.7.7.7.7.7.7.7.7.7.7.7.7.6.&.% t t.d.d.d.d.Z Y J.J.J.H.b.L @ %.7.7.7.7.7.7.7.7.7.7.7.7.7.7.7.7.7.7.7.7.7.7.7.",
"7.7.7.7.7.7.7.7.7.7.7.7.7.7.7.7.7.7.7.7.7.7.7.7.1.z X t q.p.d.Z I H.S.z.L * k <.7.7.7.7.7.7.7.7.7.7.7.7.7.7.7.7.7.7.7.7.7.7.7.7.",
"7.7.7.7.7.7.7.7.7.7.7.7.7.7.7.7.7.7.7.7.7.7.7.7.7.6.>.n % X > + , y * o b ;.6.6.7.7.7.7.7.7.7.7.7.7.7.7.7.7.7.7.7.7.7.7.7.7.7.7.",
"7.7.7.7.7.7.7.7.7.7.7.7.7.7.7.7.7.7.7.7.7.7.7.7.7.7.7.7.5.>.%.#.$.&.:.4.7.6.7.7.7.7.7.7.7.7.7.7.7.7.7.7.7.7.7.7.7.7.7.7.7.7.7.7.",
"7.7.7.7.7.7.7.7.7.7.7.7.7.7.7.7.7.7.7.7.7.7.7.7.7.7.7.7.7.7.7.7.6.6.6.6.7.7.7.7.7.7.7.7.7.7.7.7.7.7.7.7.7.7.7.7.7.7.7.7.7.7.7.7.",
"7.7.7.7.7.7.7.7.7.7.7.7.7.7.7.7.7.7.7.7.2.7.7.7.7.7.,.7.2.>.>.>.4.6.5.>.3.7.,.:.>.>.:.,.7.7.7.7.7.7.7.7.7.7.7.7.7.7.7.7.7.7.7.7.",
"7.7.7.7.7.7.7.7.7.7.7.7.7.7.7.7.7.7.7.7.- =.7.7.7.6.& &.% o o o ..>.4 . . #.6 o     # 6 6.7.7.7.7.7.7.7.7.7.7.7.7.7.7.7.7.7.7.7.",
"7.7.7.7.7.7.7.7.7.7.7.7.7.7.7.7.7.7.7.6.k ..7.7.7.,.  *.. 6.6.6.6.x v 5.$.m 6.6.b n 7.7.6.7.7.7.7.7.7.7.7.7.7.7.7.7.7.7.7.7.7.7.",
"7.7.7.7.7.7.7.7.7.7.7.7.7.7.7.7.7.7.7.7.m v 5.c ,.O.7 >.. ,.,.1.6.v l ,.2.6.7.7.n n 7.7.7.7.7.7.7.7.7.7.7.7.7.7.7.7.7.7.7.7.7.7.",
"7.7.7.7.7.7.7.7.7.7.7.7.7.7.7.7.7.7.7.6.+.6 $.  v v n >.  . o 4 4.2.9 . # o.7.6.n M 7.7.7.7.7.7.7.7.7.7.7.7.7.7.7.7.7.7.7.7.7.7.",
"7.7.7.7.7.7.7.7.7.7.7.7.7.7.7.7.7.7.7.7.>.. 4 c . & @.>.. 2.2.3.7.6.6.2.O.= 5.7.n n 7.7.7.7.7.7.7.7.7.7.7.7.7.7.7.7.7.7.7.7.7.7.",
"7.7.7.7.7.7.7.7.7.7.7.7.7.7.7.7.7.7.7.7.6.. = 4.k   :.>.  >.,.>.4.O.c :.M = 5.7.b m 7.7.7.7.7.7.7.7.7.7.7.7.7.7.7.7.7.7.7.7.7.7.",
"7.7.7.7.7.7.7.7.7.7.7.7.7.7.7.7.7.7.7.7.7.z X.7.>.= 3.4.6       ..2.k   % %.7.7.N N 7.7.7.7.7.7.7.7.7.7.7.7.7.7.7.7.7.7.7.7.7.7.",
"7.7.7.7.7.7.7.7.7.7.7.7.7.7.7.7.7.7.7.7.7.7.7.7.7.7.7.7.7.7.7.7.7.7.7.7.7.7.7.7.7.7.7.7.7.7.7.7.7.7.7.7.7.7.7.7.7.7.7.7.7.7.7.7.",
"7.7.7.7.7.7.7.7.7.7.7.7.7.7.7.7.7.7.7.7.7.7.7.7.7.7.7.7.7.7.7.7.7.7.7.7.7.7.7.7.7.7.7.7.7.7.7.7.7.7.7.7.7.7.7.7.7.7.7.7.7.7.7.7.",
"7.7.7.7.7.7.7.7.7.7.7.7.7.7.7.7.7.7.7.7.7.7.7.7.7.7.7.7.7.7.7.7.7.7.7.7.7.7.7.7.7.7.7.7.7.7.7.7.7.7.7.7.7.7.7.7.7.7.7.7.7.7.7.7.",
"7.7.7.7.7.7.7.7.7.7.7.7.7.7.7.7.7.7.7.7.7.7.7.7.7.7.7.7.7.7.7.7.7.7.7.7.7.7.7.7.7.7.7.7.7.7.7.7.7.7.7.7.7.7.7.7.7.7.7.7.7.7.7.7.",
"7.7.7.7.7.7.7.7.7.7.7.7.7.7.7.7.7.7.7.7.7.7.7.7.7.7.7.7.7.7.7.7.7.7.7.7.7.7.7.7.7.7.7.7.7.7.7.7.7.7.7.7.7.7.7.7.7.7.7.7.7.7.7.7.",
"7.7.7.7.7.7.7.7.7.7.7.7.7.7.7.7.7.7.7.7.7.7.7.7.7.7.7.7.7.7.7.7.7.7.7.7.7.7.7.7.7.7.7.7.7.7.7.7.7.7.7.7.7.7.7.7.7.7.7.7.7.7.7.7.",
"7.7.7.7.7.7.7.7.7.7.7.7.7.7.7.7.7.7.7.7.7.7.7.7.7.7.7.7.7.7.7.7.7.7.7.7.7.7.7.7.7.7.7.7.7.7.7.7.7.7.7.7.7.7.7.7.7.7.7.7.7.7.7.7.",
"7.7.7.7.7.7.7.7.7.7.7.7.7.7.7.7.7.7.7.7.7.7.7.7.7.7.7.7.7.7.7.7.7.7.7.7.7.7.7.7.7.7.7.7.7.7.7.7.7.7.7.7.7.7.7.7.7.7.7.7.7.7.7.7.",
"7.7.7.7.7.7.7.7.7.7.7.7.7.7.7.7.7.7.7.7.7.7.7.7.7.7.7.7.7.7.7.7.7.7.7.7.7.7.7.7.7.7.7.7.7.7.7.7.7.7.7.7.7.7.7.7.7.7.7.7.7.7.7.7.",
"7.7.7.7.7.7.7.7.7.7.7.7.7.7.7.7.7.7.7.7.7.7.7.7.7.7.7.7.7.7.7.7.7.7.7.7.7.7.7.7.7.7.7.7.7.7.7.7.7.7.7.7.7.7.7.7.7.7.7.7.7.7.7.7.",
"7.7.7.7.7.7.7.7.7.7.7.7.7.7.7.7.7.7.7.7.7.7.7.7.7.7.7.7.7.7.7.7.7.7.7.7.7.7.7.7.7.7.7.7.7.7.7.7.7.7.7.7.7.7.7.7.7.7.7.7.7.7.7.7.",
"7.7.7.7.7.7.7.7.7.7.7.7.7.7.7.7.7.7.7.7.7.7.7.7.7.7.7.7.7.7.7.7.7.7.7.7.7.7.7.7.7.7.7.7.7.7.7.7.7.7.7.7.7.7.7.7.7.7.7.7.7.7.7.7.",
"7.7.7.7.7.7.7.7.7.7.7.7.7.7.7.7.7.7.7.7.7.7.7.7.7.7.7.7.7.7.7.7.7.7.7.7.7.7.7.7.7.7.7.7.7.7.7.7.7.7.7.7.7.7.7.7.7.7.7.7.7.7.7.7.",
"7.7.7.7.7.7.7.7.7.7.7.7.7.7.7.7.7.7.7.7.7.7.7.7.7.7.7.7.7.7.7.7.7.7.7.7.7.7.7.7.7.7.7.7.7.7.7.7.7.7.7.7.7.7.7.7.7.7.7.7.7.7.7.7."
};
